<svg width="430" height="454" viewBox="0 0 430 454" fill="none" xmlns="http://www.w3.org/2000/svg">
<g clip-path="url(#clip0_13_23)">
<path d="M416.477 297.722C388.698 246.818 324.913 228.072 274.01 255.851C223.106 283.63 204.36 347.414 232.139 398.318C259.918 449.221 323.703 467.968 374.606 440.189C425.51 412.41 444.256 348.625 416.477 297.722Z" fill="url(#paint0_linear_13_23)"/>
<path d="M155.765 316.914C104.861 344.692 41.0768 325.946 13.298 275.043C-14.4808 224.139 4.26545 160.355 55.1689 132.576C106.072 104.797 169.857 123.543 197.636 174.447C225.415 225.35 206.668 289.135 155.765 316.914Z" fill="url(#paint1_linear_13_23)"/>
<path d="M231.87 155.765C259.649 206.668 323.434 225.415 374.337 197.636C425.241 169.857 443.987 106.072 416.208 55.1689C388.429 4.26542 324.644 -14.4808 273.741 13.298C222.838 41.0769 204.091 104.862 231.87 155.765Z" fill="url(#paint2_linear_13_23)"/>
</g>
<defs>
<linearGradient id="paint0_linear_13_23" x1="352" y1="421" x2="253.369" y2="287.04" gradientUnits="userSpaceOnUse">
<stop offset="0.273361" stop-color="#0094FF"/>
<stop offset="1" stop-color="#FC9700" stop-opacity="0"/>
</linearGradient>
<linearGradient id="paint1_linear_13_23" x1="82.7836" y1="157.798" x2="179.834" y2="152.264" gradientUnits="userSpaceOnUse">
<stop offset="0.0104167" stop-color="#0094FF"/>
<stop offset="1" stop-color="#FC9700" stop-opacity="0"/>
</linearGradient>
<linearGradient id="paint2_linear_13_23" x1="372.1" y1="38.9476" x2="289.93" y2="243.698" gradientUnits="userSpaceOnUse">
<stop offset="0.213542" stop-color="#0094FF"/>
<stop offset="0.745197" stop-color="#FC9700" stop-opacity="0"/>
</linearGradient>
<clipPath id="clip0_13_23">
<rect width="430" height="454" fill="white"/>
</clipPath>
</defs>
</svg>
