<svg width="440" height="474" viewBox="0 0 440 474" fill="none" xmlns="http://www.w3.org/2000/svg">
<g clip-path="url(#clip0_11_2)">
<path d="M345 321C397.467 321 440 278.467 440 226C440 173.533 397.467 131 345 131C292.533 131 250 173.533 250 226C250 278.467 292.533 321 345 321Z" fill="url(#paint0_linear_11_2)"/>
<path d="M95 474C147.467 474 190 431.467 190 379C190 326.533 147.467 284 95 284C42.5329 284 0 326.533 0 379C0 431.467 42.5329 474 95 474Z" fill="url(#paint1_linear_11_2)"/>
<path d="M95 190C147.467 190 190 147.467 190 95C190 42.5329 147.467 0 95 0C42.5329 0 0 42.5329 0 95C0 147.467 42.5329 190 95 190Z" fill="url(#paint2_linear_11_2)"/>
</g>
<defs>
<linearGradient id="paint0_linear_11_2" x1="345" y1="131" x2="409.5" y2="321" gradientUnits="userSpaceOnUse">
<stop stop-color="#0094FF"/>
<stop offset="1" stop-color="#FC9700" stop-opacity="0"/>
</linearGradient>
<linearGradient id="paint1_linear_11_2" x1="32.5" y1="351" x2="159.5" y2="474" gradientUnits="userSpaceOnUse">
<stop stop-color="#0094FF"/>
<stop offset="1" stop-color="#FC9700" stop-opacity="0"/>
</linearGradient>
<linearGradient id="paint2_linear_11_2" x1="95" y1="0" x2="190" y2="182" gradientUnits="userSpaceOnUse">
<stop offset="0.213542" stop-color="#0094FF"/>
<stop offset="1" stop-color="#FC9700" stop-opacity="0"/>
</linearGradient>
<clipPath id="clip0_11_2">
<rect width="440" height="474" fill="white"/>
</clipPath>
</defs>
</svg>
